<?xml version="1.0" encoding="UTF-8"?>
<!DOCTYPE svg PUBLIC "-//W3C//DTD SVG 1.1//EN" "http://www.w3.org/Graphics/SVG/1.1/DTD/svg11.dtd">
<!-- Creator: CorelDRAW X7 -->
<svg xmlns="http://www.w3.org/2000/svg" xml:space="preserve" width="210mm" height="297mm" version="1.1" style="shape-rendering:geometricPrecision; text-rendering:geometricPrecision; image-rendering:optimizeQuality; fill-rule:evenodd; clip-rule:evenodd"
viewBox="0 0 21000 29700"
 xmlns:xlink="http://www.w3.org/1999/xlink">
 <defs>
  <style type="text/css">
   <![CDATA[
    .str0 {stroke:#332C2B;stroke-width:17.64}
    .fil0 {fill:#5F4DEE}
    .fil1 {fill:#FEFEFE;fill-rule:nonzero}
   ]]>
  </style>
 </defs>
 <g id="Layer_x0020_1">
  <metadata id="CorelCorpID_0Corel-Layer"/>
  <rect class="fil0 str0" x="1612" y="4555" width="18528" height="18528"/>
  <path class="fil1" d="M5260 14699l653 0 0 -1619 -1 0c9,-44 42,-87 103,-130 121,0 243,0 366,0 295,0 690,-70 959,-256 206,-143 130,-400 -38,-687l0 0c2,-28 3,-56 3,-86l0 -505c0,-622 -401,-1028 -1023,-1028l-1022 0 0 1619c86,179 303,334 359,537 48,172 -169,357 -359,536l0 1619zm1387 -2692l-1 0c19,104 36,186 20,242 -16,55 -79,85 -192,85 -114,0 -227,0 -339,0 -51,-54 -104,-106 -149,-163 -41,-52 -64,-109 -74,-164l1 0 0 -1003 339 0c252,0 400,148 400,400l0 530c0,25 -2,50 -5,73zm1149 0l1 0 0 -640c0,-622 419,-1041 1047,-1041 629,0 1047,419 1047,1041l0 640 -1 0c91,179 324,338 349,537 22,183 -204,357 -349,536l1 0 0 640c0,622 -418,1041 -1047,1041 -628,0 -1047,-419 -1047,-1041l0 -640 -1 0c166,-179 389,-358 355,-536 -39,-201 -266,-358 -355,-537zm652 0c90,179 318,336 353,537 30,179 -193,357 -353,536l2 0 0 640c0,271 154,425 394,425 241,0 395,-154 395,-425l0 -640 -2 0c151,-179 377,-355 350,-536 -29,-200 -260,-358 -350,-537l2 0 0 -640c0,-271 -154,-425 -395,-425 -240,0 -394,154 -394,425l0 640 -2 0zm2101 0l1 0 0 -1619 924 0 333 1619 -2 0c131,179 401,329 456,537 46,174 -147,357 -234,536l1 0 13 61 12 -61 -2 0c159,-179 420,-335 449,-536 26,-183 -180,-358 -238,-537l2 0 319 -1619 936 0 0 1619 -2 0c94,179 342,343 342,537 1,193 -231,357 -342,536l2 0 0 1619 -653 0 0 -1619 -1 0c116,-179 348,-345 343,-536 -6,-195 -249,-358 -343,-537l1 0 0 -264 -55 264 -2 0c57,179 265,356 233,537 -35,203 -297,357 -453,536l1 0 -334 1619 -455 0 -334 -1619 -3 0c94,-179 285,-363 236,-536 -59,-208 -327,-358 -456,-537l1 0 -54 -264 0 264 -2 0c92,179 331,340 346,537 16,186 -213,357 -346,536l2 0 0 1619 -641 0 0 -1619 -1 0c139,-179 366,-352 347,-536 -20,-198 -256,-358 -347,-537zm3725 0l1 0c-111,-205 -153,-397 -153,-621 0,-641 370,-1060 992,-1060 622,0 991,419 991,1066l0 111 -628 67 0 -123c0,-332 -129,-505 -357,-505 -228,0 -357,142 -357,413 0,209 81,375 331,652l-2 0c44,41 102,87 176,130 82,49 178,98 287,148 281,130 317,121 418,402 71,197 28,281 54,393l1 0c117,205 164,395 164,621 0,616 -431,1060 -1053,1060 -623,0 -1054,-444 -1054,-1060l0 -154 629 -67 0 160c0,314 160,505 418,505 259,0 419,-160 419,-413 0,-438 -65,-615 -187,-881 -133,-291 -326,-337 -557,-481 -230,-143 -427,-248 -533,-363z"/>
  <g id="_369151040">
   <path class="fil1" d="M18620 20971c42,-79 67,-139 77,-193 8,-52 5,-98 -8,-149 -21,-70 -59,-125 -108,-162 -52,-38 -114,-58 -180,-58 -64,0 -101,22 -111,61 -11,40 1,100 31,174 3,8 5,15 8,22 27,0 54,0 82,0 -4,-11 -7,-22 -11,-33 -15,-41 -19,-73 -13,-96 7,-24 28,-36 62,-36 33,0 66,12 94,36 27,23 47,55 60,96 11,41 14,80 8,126 -8,44 -26,96 -60,162 -70,115 -160,229 -269,343 -16,33 -32,66 -51,99 68,0 137,0 205,0 68,0 137,0 205,0 13,-31 25,-61 36,-92 -85,0 -170,0 -255,0 -14,0 -28,0 -42,0 13,-13 26,-25 38,-38 78,-87 145,-175 202,-262 0,0 0,0 0,0zm119 -175c-12,57 -38,120 -85,202 0,0 0,0 0,0 -49,74 -106,149 -171,223 77,0 154,0 232,0 7,0 15,0 23,0 -3,9 -5,17 -7,25 -15,47 -32,95 -52,142 -4,8 -8,16 -12,25 -8,0 -16,0 -24,0 -78,0 -155,0 -233,0 -78,0 -155,0 -233,0 -8,0 -16,0 -24,0 5,-9 10,-17 15,-25 26,-44 50,-87 72,-131 1,-2 1,-4 3,-7 1,-2 3,-4 5,-6 110,-116 198,-233 267,-349 31,-64 46,-112 53,-153 5,-40 1,-73 -9,-109 -10,-28 -22,-50 -37,-64 -14,-12 -32,-18 -51,-18 -19,0 -31,6 -35,18 -5,14 -2,36 8,64 6,20 12,39 18,58 2,9 4,17 5,25 -7,0 -14,0 -21,0 -42,0 -83,0 -124,0 -7,0 -15,0 -22,0 -2,-8 -4,-16 -6,-25 -5,-15 -11,-31 -16,-47 -37,-87 -55,-158 -44,-207 10,-50 56,-78 137,-78 81,0 161,26 228,73 63,47 110,114 134,197 13,57 16,108 6,167zm262 581c63,0 122,-22 167,-59 42,-37 69,-91 75,-155 2,-180 -12,-361 -34,-541 -8,-65 -34,-119 -74,-156 -41,-37 -97,-58 -160,-58 -63,0 -109,21 -134,58 -23,37 -27,91 -10,156 31,180 41,361 23,541 -14,64 -8,118 16,155 24,37 68,59 131,59zm192 -23c-58,46 -132,73 -209,73 -78,0 -132,-27 -160,-73 -28,-47 -33,-113 -15,-191 20,-180 11,-361 -22,-541 -22,-79 -19,-145 10,-191 30,-47 88,-73 166,-73 80,0 149,26 201,73 49,46 81,112 89,191 20,180 35,361 35,541 -6,78 -41,144 -95,191zm-166 -69c-33,0 -57,-12 -71,-34 -14,-21 -18,-51 -12,-88 14,-180 4,-361 -25,-541 -9,-38 -6,-68 7,-89 13,-22 37,-34 69,-34 33,0 62,12 84,34 22,21 37,51 42,89 24,180 37,361 32,541 -4,37 -18,67 -40,88 -23,22 -53,34 -86,34zm-31 -68c8,12 22,18 41,18 19,0 36,-6 48,-18 12,-12 20,-30 23,-54 7,-180 -5,-361 -30,-541 -5,-24 -13,-43 -25,-55 -12,-11 -28,-18 -47,-18 -19,0 -32,7 -40,18 -7,12 -9,31 -4,55 29,180 40,361 27,541 -3,24 0,42 7,54z"/>
   <path class="fil1" d="M18244 22531c60,0 120,0 180,0 60,0 120,0 180,0 -6,-30 -12,-61 -18,-91 -77,0 -155,0 -233,0 -8,0 -16,0 -24,0 -2,-9 -3,-17 -4,-25 -23,-138 -51,-275 -64,-412 -13,-138 0,-275 32,-413 -34,0 -68,0 -102,0 -34,157 -41,315 -20,471 20,157 52,314 73,470zm394 50c-69,0 -138,0 -208,0 -69,0 -138,0 -207,0 -9,0 -17,0 -25,0 -1,-8 -1,-16 -2,-25 -19,-165 -52,-329 -74,-495 -22,-165 -14,-330 29,-496 3,-8 7,-16 11,-25 8,0 16,0 25,0 51,0 101,0 152,0 9,0 17,0 25,0 -3,9 -6,17 -10,25 -38,138 -56,276 -46,413 10,137 37,274 61,412 77,0 154,0 232,0 7,0 16,0 23,0 2,8 4,16 6,25 9,47 19,94 28,141 2,9 4,17 5,25 -8,0 -16,0 -25,0zm471 -732c3,-19 6,-39 9,-59 12,-64 2,-118 -27,-155 -28,-37 -77,-59 -143,-59 -67,0 -129,22 -178,59 -47,37 -80,91 -89,155 -8,181 4,361 31,541 13,65 45,119 89,156 46,37 105,58 169,58 64,0 110,-21 136,-58 25,-37 31,-91 17,-156 -15,-97 -24,-194 -27,-292 -62,0 -123,0 -185,0 1,31 2,61 4,92 21,0 42,0 63,0 8,0 16,0 24,0 1,8 2,16 2,25 6,58 14,117 24,175 8,38 4,68 -10,89 -14,22 -39,34 -73,34 -34,0 -65,-12 -90,-34 -24,-21 -40,-51 -47,-89 -26,-180 -36,-360 -25,-541 5,-37 21,-67 45,-88 26,-22 58,-34 94,-34 36,0 63,12 79,34 16,21 22,51 16,88 -3,20 -6,40 -8,59 33,0 67,0 100,0zm60 -59c-5,28 -9,56 -12,84 -2,8 -2,17 -4,25 -8,0 -16,0 -25,0 -49,0 -99,0 -149,0 -8,0 -17,0 -25,0 1,-8 2,-17 2,-25 3,-28 6,-56 10,-84 4,-24 0,-42 -9,-54 -9,-12 -24,-18 -45,-18 -22,0 -40,6 -53,18 -13,12 -23,30 -26,54 -12,181 -3,361 22,541 5,24 15,43 28,55 13,11 30,18 50,18 20,0 34,-7 42,-18 8,-12 10,-31 5,-55 -8,-50 -16,-100 -22,-150 -21,0 -42,0 -63,0 -8,0 -16,0 -24,0 0,-9 -1,-17 -2,-25 -4,-47 -6,-95 -8,-142 0,-8 0,-16 0,-25 8,0 16,0 25,0 78,0 157,0 236,0 8,0 17,0 25,0 -1,9 -1,17 -1,25 0,106 9,212 25,317 18,79 11,145 -20,191 -30,47 -87,73 -166,73 -79,0 -152,-26 -210,-73 -56,-46 -95,-112 -111,-191 -27,-180 -40,-360 -33,-541 11,-78 53,-144 113,-191 64,-46 141,-73 221,-73 80,0 138,27 172,73 35,47 47,113 32,191z"/>
  </g>
 </g>
</svg>
